<?xml version="1.0" standalone="no"?>
<!DOCTYPE svg PUBLIC "-//W3C//DTD SVG 20010904//EN"
 "http://www.w3.org/TR/2001/REC-SVG-20010904/DTD/svg10.dtd">
<svg version="1.0" xmlns="http://www.w3.org/2000/svg"
 width="512.000000pt" height="512.000000pt" viewBox="0 0 512.000000 512.000000"
 preserveAspectRatio="xMidYMid meet">

<g transform="translate(0.000000,512.000000) scale(0.100000,-0.100000)"
fill="#000000" stroke="none">
<path d="M921 4944 c-129 -35 -249 -132 -309 -251 -29 -56 -34 -61 -71 -66
-73 -9 -168 -62 -235 -129 -191 -191 -191 -485 0 -676 69 -69 154 -115 243
-132 71 -13 1320 -13 1379 0 116 27 222 111 274 218 31 63 33 74 33 172 0 93
-3 112 -27 162 -49 104 -150 193 -252 220 -31 8 -46 17 -46 29 0 9 -16 48 -35
86 -43 86 -103 144 -193 186 -62 30 -75 32 -173 32 l-106 0 -46 42 c-113 104
-287 147 -436 107z m256 -177 c50 -26 84 -55 139 -120 35 -42 67 -47 127 -22
142 59 317 -64 317 -222 0 -45 37 -83 81 -83 123 0 239 -117 239 -240 0 -95
-81 -204 -170 -228 -34 -10 -201 -12 -695 -10 l-650 3 -51 23 c-64 29 -136
102 -166 167 -33 73 -31 181 4 256 49 106 150 177 265 187 75 6 94 21 117 93
34 103 104 176 206 213 64 23 172 16 237 -17z"/>
<path d="M3520 4947 c-49 -16 -133 -102 -148 -153 -8 -29 -12 -146 -12 -394 0
-248 4 -365 12 -394 16 -55 99 -138 154 -154 26 -7 108 -12 218 -12 l176 0 0
-80 0 -80 -80 0 -80 0 0 -80 0 -80 400 0 400 0 0 80 0 80 -80 0 -80 0 0 80 0
80 176 0 c110 0 192 5 218 12 55 16 138 99 154 154 17 58 17 730 0 788 -16 55
-99 138 -154 154 -55 16 -1222 15 -1274 -1z m1255 -172 c25 -24 25 -24 25
-240 l0 -215 -640 0 -640 0 0 215 c0 216 0 216 25 240 l24 25 591 0 591 0 24
-25z m25 -670 c0 -46 -4 -60 -25 -80 l-24 -25 -591 0 -591 0 -24 25 c-21 20
-25 34 -25 80 l0 55 640 0 640 0 0 -55z m-560 -345 l0 -80 -80 0 -80 0 0 80 0
80 80 0 80 0 0 -80z"/>
<path d="M2440 3755 c-8 -2 -49 -9 -90 -15 -169 -28 -367 -114 -513 -224 -186
-140 -351 -370 -413 -575 l-18 -61 -183 0 -183 0 0 320 0 320 -80 0 -80 0 0
-375 0 -376 25 -24 24 -25 218 0 218 0 0 -160 0 -160 -218 0 -218 0 -24 -25
-25 -24 0 -296 0 -295 80 0 80 0 0 240 0 240 183 0 183 0 18 -61 c47 -157 155
-330 290 -465 174 -174 386 -287 631 -335 103 -21 349 -18 455 5 235 51 437
161 606 330 136 137 238 302 290 469 l18 57 183 0 183 0 0 -320 0 -320 80 0
80 0 0 375 0 376 -25 24 -24 25 -218 0 -218 0 0 160 0 160 218 0 218 0 24 25
25 24 0 296 0 295 -80 0 -80 0 0 -240 0 -240 -183 0 -183 0 -18 61 c-47 157
-155 330 -290 465 -170 170 -369 278 -608 330 -66 14 -321 28 -358 19z m340
-179 c211 -50 380 -145 523 -293 85 -87 124 -142 181 -252 102 -198 137 -417
101 -636 -62 -382 -329 -695 -700 -822 -474 -161 -1021 63 -1247 512 -105 207
-139 420 -104 633 75 449 403 783 851 867 98 18 301 14 395 -9z"/>
<path d="M2420 3194 c-266 -34 -533 -154 -704 -316 -63 -60 -64 -52 16 -127
l37 -34 88 72 c154 125 357 212 558 241 307 43 633 -56 883 -268 l53 -45 36
34 c81 75 80 67 17 127 -141 134 -355 243 -574 293 -83 19 -331 33 -410 23z"/>
<path d="M2389 2864 c-161 -29 -343 -116 -455 -217 l-48 -44 48 -56 c27 -32
50 -57 53 -57 2 0 36 25 75 56 150 117 302 168 498 168 210 0 364 -56 524
-191 22 -18 43 -33 47 -33 3 0 28 25 55 57 l48 56 -48 44 c-201 181 -518 268
-797 217z"/>
<path d="M2420 2544 c-81 -17 -211 -81 -270 -132 l-44 -39 58 -56 59 -56 34
29 c72 64 200 110 303 110 103 0 231 -46 303 -110 l34 -29 59 56 58 56 -44 39
c-61 53 -190 115 -275 133 -86 18 -189 18 -275 -1z"/>
<path d="M2480 2227 c-49 -16 -133 -102 -148 -153 -28 -94 -8 -169 63 -239
101 -102 229 -102 330 0 98 97 101 222 8 325 -65 72 -158 97 -253 67z m135
-172 c50 -49 15 -135 -55 -135 -19 0 -40 9 -55 25 -16 15 -25 36 -25 55 0 19
9 40 25 55 15 16 36 25 55 25 19 0 40 -9 55 -25z"/>
<path d="M320 1587 c-49 -16 -133 -102 -148 -153 -17 -59 -17 -1049 0 -1108
16 -55 99 -138 154 -154 59 -17 1049 -17 1108 0 55 16 138 99 154 154 17 58
17 730 0 788 -16 55 -99 138 -154 154 -23 7 -67 12 -98 12 l-56 0 0 56 c0 31
-5 75 -12 98 -16 55 -99 138 -154 154 -54 16 -743 15 -794 -1z m775 -172 c21
-20 25 -34 25 -80 l0 -55 -56 0 c-87 0 -133 -18 -190 -75 -75 -75 -76 -79 -72
-513 l3 -372 -218 0 -218 0 -24 25 -25 24 0 511 0 511 25 24 24 25 351 0 351
0 24 -25z m320 -320 l25 -24 0 -351 0 -351 -25 -24 c-24 -25 -26 -25 -215 -25
-189 0 -191 0 -215 25 l-25 24 0 351 0 351 25 24 c24 25 26 25 215 25 189 0
191 0 215 -25z"/>
<path d="M3600 1427 c-49 -16 -133 -102 -148 -153 -8 -28 -12 -134 -12 -338 0
-260 -2 -296 -15 -296 -9 0 -27 -11 -40 -25 -24 -23 -25 -31 -25 -136 0 -61 5
-130 12 -153 16 -55 99 -138 154 -154 59 -17 1209 -17 1268 0 55 16 138 99
154 154 7 23 12 92 12 153 0 105 -1 113 -25 136 -13 14 -31 25 -40 25 -13 0
-15 36 -15 296 0 204 -4 310 -12 338 -16 55 -99 138 -154 154 -55 16 -1062 15
-1114 -1z m1095 -172 l25 -24 0 -296 0 -295 -560 0 -560 0 0 295 0 296 25 24
24 25 511 0 511 0 24 -25z m105 -830 c0 -46 -4 -60 -25 -80 l-24 -25 -591 0
-591 0 -24 25 c-21 20 -25 34 -25 80 l0 55 640 0 640 0 0 -55z"/>
</g>
</svg>
